<mxfile host="app.diagrams.net" modified="2023-03-31T10:01:40.837Z" agent="Mozilla/5.0 (Windows NT 10.0; Win64; x64) AppleWebKit/537.36 (KHTML, like Gecko) Chrome/111.0.0.0 Safari/537.36 Edg/111.0.1661.54" etag="jO_oLg3XdZkSTBSA0_6u" version="21.1.1" type="device">
  <diagram name="Tổng quát" id="alEmz5WL3eYS6DBO8KOK">
    <mxGraphModel dx="1877" dy="573" grid="1" gridSize="10" guides="1" tooltips="1" connect="1" arrows="1" fold="1" page="1" pageScale="1" pageWidth="827" pageHeight="1169" math="0" shadow="0">
      <root>
        <mxCell id="0" />
        <mxCell id="1" parent="0" />
        <mxCell id="abdLdZj4Md6ytMnj9Wkn-7" value="" style="rounded=0;whiteSpace=wrap;html=1;" parent="1" vertex="1">
          <mxGeometry x="-748" y="20" width="670" height="580" as="geometry" />
        </mxCell>
        <mxCell id="abdLdZj4Md6ytMnj9Wkn-1" value="Staff" style="shape=umlActor;verticalLabelPosition=bottom;verticalAlign=top;html=1;outlineConnect=0;" parent="1" vertex="1">
          <mxGeometry x="-800" y="350" width="30" height="60" as="geometry" />
        </mxCell>
        <mxCell id="abdLdZj4Md6ytMnj9Wkn-2" value="Chef" style="shape=umlActor;verticalLabelPosition=bottom;verticalAlign=top;html=1;outlineConnect=0;" parent="1" vertex="1">
          <mxGeometry x="-50" y="350" width="30" height="60" as="geometry" />
        </mxCell>
        <mxCell id="abdLdZj4Md6ytMnj9Wkn-4" value="Manager" style="shape=umlActor;verticalLabelPosition=bottom;verticalAlign=top;html=1;outlineConnect=0;" parent="1" vertex="1">
          <mxGeometry x="-800" y="150" width="30" height="60" as="geometry" />
        </mxCell>
        <mxCell id="bAvRg4Wj8XqDjqAvWsMM-1" value="Create order" style="ellipse;whiteSpace=wrap;html=1;" parent="1" vertex="1">
          <mxGeometry x="-610" y="300" width="120" height="50" as="geometry" />
        </mxCell>
        <mxCell id="bAvRg4Wj8XqDjqAvWsMM-5" value="Make payment" style="ellipse;whiteSpace=wrap;html=1;" parent="1" vertex="1">
          <mxGeometry x="-610" y="205" width="120" height="50" as="geometry" />
        </mxCell>
        <mxCell id="bAvRg4Wj8XqDjqAvWsMM-7" value="" style="endArrow=none;html=1;rounded=0;exitX=1;exitY=0.3333333333333333;exitDx=0;exitDy=0;exitPerimeter=0;entryX=0;entryY=0.5;entryDx=0;entryDy=0;" parent="1" source="abdLdZj4Md6ytMnj9Wkn-1" target="bAvRg4Wj8XqDjqAvWsMM-1" edge="1">
          <mxGeometry width="50" height="50" relative="1" as="geometry">
            <mxPoint x="-610" y="410" as="sourcePoint" />
            <mxPoint x="-560" y="360" as="targetPoint" />
          </mxGeometry>
        </mxCell>
        <mxCell id="bAvRg4Wj8XqDjqAvWsMM-9" value="Add dish" style="ellipse;whiteSpace=wrap;html=1;" parent="1" vertex="1">
          <mxGeometry x="-530" y="400" width="120" height="40" as="geometry" />
        </mxCell>
        <mxCell id="bAvRg4Wj8XqDjqAvWsMM-10" value="Delete dish" style="ellipse;whiteSpace=wrap;html=1;" parent="1" vertex="1">
          <mxGeometry x="-670" y="400" width="120" height="40" as="geometry" />
        </mxCell>
        <mxCell id="bAvRg4Wj8XqDjqAvWsMM-11" value="&amp;lt;&amp;lt;include&amp;gt;&amp;gt;" style="html=1;verticalAlign=bottom;endArrow=open;dashed=1;endSize=8;elbow=vertical;rounded=0;exitX=0.5;exitY=0;exitDx=0;exitDy=0;entryX=0.5;entryY=1;entryDx=0;entryDy=0;" parent="1" source="bAvRg4Wj8XqDjqAvWsMM-9" target="bAvRg4Wj8XqDjqAvWsMM-1" edge="1">
          <mxGeometry x="-0.5281" y="2" relative="1" as="geometry">
            <mxPoint x="-413" y="470" as="sourcePoint" />
            <mxPoint x="-290" y="420" as="targetPoint" />
            <mxPoint as="offset" />
          </mxGeometry>
        </mxCell>
        <mxCell id="bAvRg4Wj8XqDjqAvWsMM-12" value="&amp;lt;&amp;lt;include&amp;gt;&amp;gt;" style="html=1;verticalAlign=bottom;endArrow=open;dashed=1;endSize=8;elbow=vertical;rounded=0;exitX=0.5;exitY=0;exitDx=0;exitDy=0;entryX=0.5;entryY=1;entryDx=0;entryDy=0;" parent="1" source="bAvRg4Wj8XqDjqAvWsMM-10" target="bAvRg4Wj8XqDjqAvWsMM-1" edge="1">
          <mxGeometry x="-0.2459" y="-12" relative="1" as="geometry">
            <mxPoint x="-260" y="380" as="sourcePoint" />
            <mxPoint x="-290" y="420" as="targetPoint" />
            <mxPoint y="-1" as="offset" />
          </mxGeometry>
        </mxCell>
        <mxCell id="bAvRg4Wj8XqDjqAvWsMM-15" value="Process order" style="ellipse;whiteSpace=wrap;html=1;" parent="1" vertex="1">
          <mxGeometry x="-300" y="300" width="120" height="50" as="geometry" />
        </mxCell>
        <mxCell id="bAvRg4Wj8XqDjqAvWsMM-17" value="Manage dish status" style="ellipse;whiteSpace=wrap;html=1;" parent="1" vertex="1">
          <mxGeometry x="-300" y="415" width="120" height="50" as="geometry" />
        </mxCell>
        <mxCell id="bAvRg4Wj8XqDjqAvWsMM-19" value="Turn off" style="ellipse;whiteSpace=wrap;html=1;" parent="1" vertex="1">
          <mxGeometry x="-370" y="520" width="120" height="40" as="geometry" />
        </mxCell>
        <mxCell id="bAvRg4Wj8XqDjqAvWsMM-20" value="&amp;lt;&amp;lt;extend&amp;gt;&amp;gt;" style="html=1;verticalAlign=bottom;endArrow=open;dashed=1;endSize=8;elbow=vertical;rounded=0;entryX=0.5;entryY=0;entryDx=0;entryDy=0;exitX=0.5;exitY=1;exitDx=0;exitDy=0;" parent="1" source="bAvRg4Wj8XqDjqAvWsMM-17" target="bAvRg4Wj8XqDjqAvWsMM-19" edge="1">
          <mxGeometry x="0.0621" y="-3" relative="1" as="geometry">
            <mxPoint x="-520" y="350" as="sourcePoint" />
            <mxPoint x="-430" y="440" as="targetPoint" />
            <mxPoint as="offset" />
          </mxGeometry>
        </mxCell>
        <mxCell id="bAvRg4Wj8XqDjqAvWsMM-23" value="Mark the &lt;br&gt;completed dish" style="ellipse;whiteSpace=wrap;html=1;" parent="1" vertex="1">
          <mxGeometry x="-300" y="200" width="120" height="60" as="geometry" />
        </mxCell>
        <mxCell id="bAvRg4Wj8XqDjqAvWsMM-24" value="&amp;lt;&amp;lt;include&amp;gt;&amp;gt;" style="html=1;verticalAlign=bottom;endArrow=open;dashed=1;endSize=8;elbow=vertical;rounded=0;entryX=0.5;entryY=0;entryDx=0;entryDy=0;exitX=0.5;exitY=1;exitDx=0;exitDy=0;" parent="1" source="bAvRg4Wj8XqDjqAvWsMM-23" target="bAvRg4Wj8XqDjqAvWsMM-15" edge="1">
          <mxGeometry x="0.5" y="10" relative="1" as="geometry">
            <mxPoint x="-560" y="630" as="sourcePoint" />
            <mxPoint x="-610" y="510" as="targetPoint" />
            <mxPoint as="offset" />
          </mxGeometry>
        </mxCell>
        <mxCell id="bAvRg4Wj8XqDjqAvWsMM-29" value="" style="endArrow=none;html=1;rounded=0;entryX=1;entryY=0.3333333333333333;entryDx=0;entryDy=0;entryPerimeter=0;exitX=0;exitY=0.5;exitDx=0;exitDy=0;" parent="1" source="bAvRg4Wj8XqDjqAvWsMM-1" target="abdLdZj4Md6ytMnj9Wkn-4" edge="1">
          <mxGeometry width="50" height="50" relative="1" as="geometry">
            <mxPoint x="-480" y="320" as="sourcePoint" />
            <mxPoint x="-430" y="270" as="targetPoint" />
          </mxGeometry>
        </mxCell>
        <mxCell id="bAvRg4Wj8XqDjqAvWsMM-31" value="Manage receipts" style="ellipse;whiteSpace=wrap;html=1;" parent="1" vertex="1">
          <mxGeometry x="-610" y="80" width="120" height="60" as="geometry" />
        </mxCell>
        <mxCell id="bAvRg4Wj8XqDjqAvWsMM-34" value="" style="endArrow=none;html=1;rounded=0;entryX=0;entryY=0.5;entryDx=0;entryDy=0;exitX=1;exitY=0.3333333333333333;exitDx=0;exitDy=0;exitPerimeter=0;" parent="1" source="abdLdZj4Md6ytMnj9Wkn-4" target="bAvRg4Wj8XqDjqAvWsMM-31" edge="1">
          <mxGeometry width="50" height="50" relative="1" as="geometry">
            <mxPoint x="-430" y="280" as="sourcePoint" />
            <mxPoint x="-380" y="230" as="targetPoint" />
          </mxGeometry>
        </mxCell>
        <mxCell id="yZcRr51fnGqA_wAMtCOE-3" value="View receipts" style="ellipse;whiteSpace=wrap;html=1;" vertex="1" parent="1">
          <mxGeometry x="-410" y="50" width="120" height="50" as="geometry" />
        </mxCell>
        <mxCell id="yZcRr51fnGqA_wAMtCOE-4" value="View revenues" style="ellipse;whiteSpace=wrap;html=1;" vertex="1" parent="1">
          <mxGeometry x="-410" y="130" width="120" height="50" as="geometry" />
        </mxCell>
        <mxCell id="yZcRr51fnGqA_wAMtCOE-5" value="&amp;lt;&amp;lt;extend&amp;gt;&amp;gt;" style="html=1;verticalAlign=bottom;endArrow=open;dashed=1;endSize=8;elbow=vertical;rounded=0;entryX=0;entryY=0.5;entryDx=0;entryDy=0;exitX=1;exitY=0.5;exitDx=0;exitDy=0;" edge="1" parent="1" source="bAvRg4Wj8XqDjqAvWsMM-31" target="yZcRr51fnGqA_wAMtCOE-3">
          <mxGeometry x="-0.0689" y="-7" relative="1" as="geometry">
            <mxPoint x="-500" y="90" as="sourcePoint" />
            <mxPoint x="-400" y="110" as="targetPoint" />
            <mxPoint as="offset" />
          </mxGeometry>
        </mxCell>
        <mxCell id="yZcRr51fnGqA_wAMtCOE-6" value="&amp;lt;&amp;lt;extend&amp;gt;&amp;gt;" style="html=1;verticalAlign=bottom;endArrow=open;dashed=1;endSize=8;elbow=vertical;rounded=0;entryX=0;entryY=0;entryDx=0;entryDy=0;exitX=1;exitY=0.5;exitDx=0;exitDy=0;" edge="1" parent="1" source="bAvRg4Wj8XqDjqAvWsMM-31" target="yZcRr51fnGqA_wAMtCOE-4">
          <mxGeometry x="-0.0801" y="-18" relative="1" as="geometry">
            <mxPoint x="-490" y="110" as="sourcePoint" />
            <mxPoint x="-430" y="80" as="targetPoint" />
            <mxPoint as="offset" />
          </mxGeometry>
        </mxCell>
        <mxCell id="yZcRr51fnGqA_wAMtCOE-7" value="" style="endArrow=none;html=1;rounded=0;entryX=0.5;entryY=0.5;entryDx=0;entryDy=0;entryPerimeter=0;exitX=1;exitY=0.5;exitDx=0;exitDy=0;" edge="1" parent="1" source="bAvRg4Wj8XqDjqAvWsMM-15" target="abdLdZj4Md6ytMnj9Wkn-2">
          <mxGeometry width="50" height="50" relative="1" as="geometry">
            <mxPoint x="-680" y="365" as="sourcePoint" />
            <mxPoint x="-760" y="150" as="targetPoint" />
          </mxGeometry>
        </mxCell>
        <mxCell id="yZcRr51fnGqA_wAMtCOE-10" value="" style="endArrow=none;html=1;rounded=0;exitX=1;exitY=0.5;exitDx=0;exitDy=0;entryX=0;entryY=0.5;entryDx=0;entryDy=0;" edge="1" parent="1" source="bAvRg4Wj8XqDjqAvWsMM-1" target="bAvRg4Wj8XqDjqAvWsMM-15">
          <mxGeometry width="50" height="50" relative="1" as="geometry">
            <mxPoint x="-760" y="410" as="sourcePoint" />
            <mxPoint x="-600" y="365" as="targetPoint" />
          </mxGeometry>
        </mxCell>
        <mxCell id="yZcRr51fnGqA_wAMtCOE-11" value="Turn on" style="ellipse;whiteSpace=wrap;html=1;" vertex="1" parent="1">
          <mxGeometry x="-230" y="520" width="120" height="40" as="geometry" />
        </mxCell>
        <mxCell id="yZcRr51fnGqA_wAMtCOE-12" value="&amp;lt;&amp;lt;extend&amp;gt;&amp;gt;" style="html=1;verticalAlign=bottom;endArrow=open;dashed=1;endSize=8;elbow=vertical;rounded=0;entryX=0.5;entryY=0;entryDx=0;entryDy=0;exitX=0.5;exitY=1;exitDx=0;exitDy=0;" edge="1" parent="1" source="bAvRg4Wj8XqDjqAvWsMM-17" target="yZcRr51fnGqA_wAMtCOE-11">
          <mxGeometry x="0.1089" y="7" relative="1" as="geometry">
            <mxPoint x="-190" y="490" as="sourcePoint" />
            <mxPoint x="-280" y="570" as="targetPoint" />
            <mxPoint as="offset" />
          </mxGeometry>
        </mxCell>
        <mxCell id="yZcRr51fnGqA_wAMtCOE-13" value="&amp;lt;&amp;lt;include&amp;gt;&amp;gt;" style="html=1;verticalAlign=bottom;endArrow=open;dashed=1;endSize=8;elbow=vertical;rounded=0;entryX=0.5;entryY=0;entryDx=0;entryDy=0;exitX=0.5;exitY=1;exitDx=0;exitDy=0;" edge="1" parent="1" source="bAvRg4Wj8XqDjqAvWsMM-5" target="bAvRg4Wj8XqDjqAvWsMM-1">
          <mxGeometry x="0.5" y="10" relative="1" as="geometry">
            <mxPoint x="-540" y="260" as="sourcePoint" />
            <mxPoint x="-550" y="300" as="targetPoint" />
            <mxPoint as="offset" />
          </mxGeometry>
        </mxCell>
        <mxCell id="yZcRr51fnGqA_wAMtCOE-14" value="" style="endArrow=none;html=1;rounded=0;exitX=1;exitY=0.5;exitDx=0;exitDy=0;entryX=0.5;entryY=0.5;entryDx=0;entryDy=0;entryPerimeter=0;" edge="1" parent="1" source="bAvRg4Wj8XqDjqAvWsMM-17" target="abdLdZj4Md6ytMnj9Wkn-2">
          <mxGeometry width="50" height="50" relative="1" as="geometry">
            <mxPoint x="-760" y="410" as="sourcePoint" />
            <mxPoint x="-600" y="365" as="targetPoint" />
          </mxGeometry>
        </mxCell>
      </root>
    </mxGraphModel>
  </diagram>
</mxfile>
